<!--?xml version="1.0" encoding="utf-8"?-->
<!-- Generator: Adobe Illustrator 15.1.0, SVG Export Plug-In . SVG Version: 6.00 Build 0)  -->

<svg version="1.1" id="_x32_" xmlns="http://www.w3.org/2000/svg" xmlns:xlink="http://www.w3.org/1999/xlink" x="0px" y="0px" width="512px" height="512px" viewBox="0 0 512 512" style="width: 128px; height: 128px; opacity: 1;" xml:space="preserve">
<style type="text/css">

	.st0{fill:#4B4B4B;}

</style>
<g>
	<path class="st0" d="M187.219,348.875c0,0-13.563-57.219-19.594-76.781c-62.469,26.344-68.5,57.953-62.469,98.609
		c4.328,29.266,28.391,56.125,30.109,52.703C139.781,414.359,139.031,360.156,187.219,348.875z" style="fill: rgb(75, 75, 75);"></path>
	<path class="st0" d="M327.078,348.875c0,0,13.547-57.219,19.578-76.781c62.469,26.344,68.5,57.953,62.469,98.609
		c-4.313,29.266-28.375,56.125-30.094,52.703C374.5,414.359,375.25,360.156,327.078,348.875z" style="fill: rgb(75, 75, 75);"></path>
	<path class="st0" d="M257.156,0c-80.547,57.609-85.906,157.313-77.875,226.016c8.063,68.688,26.859,137.375,26.859,137.375h102.016
		c0,0,18.781-68.688,26.844-137.375C343.047,157.313,337.688,57.609,257.156,0z M257.156,255.969
		c-13.359,0-24.188-10.813-24.188-24.156s10.828-24.172,24.188-24.172c13.344,0,24.156,10.828,24.156,24.172
		S270.5,255.969,257.156,255.969z M257.156,168.266c-19.031,0-34.469-15.422-34.469-34.453s15.438-34.469,34.469-34.469
		c19.016,0,34.438,15.438,34.438,34.469S276.172,168.266,257.156,168.266z" style="fill: rgb(75, 75, 75);"></path>
	<path class="st0" d="M230.5,385.313c-1.109,8.438-4.031,24.203-9.25,34.375c-1.531-0.25-3.094-0.391-4.672-0.391
		c-13.359,0-24.516,9.516-27.109,22.109c-1.375-0.156-2.766-0.219-4.156-0.219c-14.766,0-28.313,8.078-35.469,20.656
		c-4.531-1.266-9.188-1.906-13.938-1.906c-28.703,0-52.063,23.359-52.063,52.063h13.438c0-21.297,17.313-38.625,38.625-38.625
		c5.141,0,10.141,1,14.844,2.953c1.688,0.703,3.594,0.703,5.281-0.047c1.656-0.719,2.969-2.094,3.594-3.813
		c3.969-10.688,14.281-17.859,25.688-17.859c2.5,0,4.969,0.328,7.344,1.016c0.375,0.094,0.719,0.188,1.063,0.313
		c2.188,0.703,4.578,0.25,6.344-1.219c1.781-1.469,2.672-3.719,2.391-6c-0.078-0.625-0.109-1.188-0.109-1.75
		c0-7.859,6.375-14.25,14.234-14.25c1.828,0,3.609,0.344,5.297,1.031c2.875,1.156,6.188,0.172,7.969-2.359
		c9.766-13.828,13.344-39.078,14.156-46.078H230.5z" style="fill: rgb(75, 75, 75);"></path>
	<path class="st0" d="M290.234,430.531c2.328-1.031,4.813-1.563,7.375-1.563c10.078,0,18.297,8.219,18.297,18.313
		c0,0.313,0,0.672-0.031,1.094c-0.125,2.094,0.75,4.125,2.344,5.5c1.609,1.375,3.75,1.906,5.813,1.438
		c2.094-0.469,4.25-0.703,6.406-0.703c15.219,0,27.734,11.406,29.125,26.531c0.188,2.141,1.406,4.063,3.25,5.156
		c1.844,1.109,4.109,1.25,6.094,0.391c4.156-1.781,8.563-2.688,13.125-2.688c15.75,0,28.969,11,32.438,25.719h13.688
		c-3.656-22.172-22.938-39.141-46.125-39.141c-3.625,0-7.188,0.406-10.656,1.219c-2.156-7.391-6.313-14.094-12.094-19.391
		c-7.891-7.234-18.125-11.219-28.844-11.219c-0.563,0-1.125,0-1.688,0.031c-2.828-14.609-15.719-25.672-31.141-25.672
		c-2.234,0-4.453,0.234-6.609,0.688c-4.563-10.766-6.797-24.797-7.594-30.922h-13.547c0.766,6.406,3.828,28.234,11.828,42.375
		C283.375,430.688,287.078,431.906,290.234,430.531z" style="fill: rgb(75, 75, 75);"></path>
</g>
</svg>
